<svg xmlns="http://www.w3.org/2000/svg" viewBox="0 0 960 700" width="100%" height="100%">
  <defs>
    <linearGradient id="bgGrad" x1="0" y1="0" x2="0" y2="1">
      <stop offset="0%" stop-color="#090d16"/>
      <stop offset="100%" stop-color="#020617"/>
    </linearGradient>
    <radialGradient id="fieldGrad" cx="50%" cy="50%" r="50%">
      <stop offset="0%" stop-color="#fdf2f8"/>
      <stop offset="100%" stop-color="#fbcfe8"/>
    </radialGradient>
    <filter id="shadow" x="-5%" y="-5%" width="110%" height="110%">
      <feDropShadow dx="0" dy="8" stdDeviation="12" flood-color="#000000" flood-opacity="0.8"/>
    </filter>
  </defs>

  <rect width="960" height="700" fill="#000000"/>
  <rect width="960" height="700" fill="url(#bgGrad)"/>

  <!-- Title Badge -->
  <g transform="translate(480, 42)">
    <rect x="-260" y="-18" width="520" height="36" rx="18" fill="#1e293b" stroke="#334155" stroke-width="1.5"/>
    <text x="0" y="6" text-anchor="middle" font-family="-apple-system, sans-serif" font-size="15" font-weight="700" fill="#f8fafc" letter-spacing="1">HILAR LYMPH NODE: HISTOPATHOLOGY OF PIGMENT</text>
  </g>

  <!-- Histology Field -->
  <g transform="translate(480, 345)" filter="url(#shadow)">
    <rect x="-380" y="-240" width="760" height="480" rx="20" fill="#0f172a" stroke="#334155" stroke-width="3"/>
    <rect x="-372" y="-232" width="744" height="464" rx="16" fill="url(#fieldGrad)"/>

    <g clip-path="url(#nodeClip)">
      <clipPath id="nodeClip">
        <rect x="-372" y="-232" width="744" height="464" rx="16"/>
      </clipPath>

      <!-- Background Lymphoid Stroma (Dense small blue lymphocytes) -->
      <circle cx="-350" cy="-210" r="4" fill="#312e81" opacity="0.65"/><circle cx="-321" cy="-173" r="4" fill="#312e81" opacity="0.65"/><circle cx="-292" cy="-136" r="4" fill="#312e81" opacity="0.65"/><circle cx="-263" cy="-99" r="4" fill="#312e81" opacity="0.65"/><circle cx="-234" cy="-62" r="4" fill="#312e81" opacity="0.65"/><circle cx="-205" cy="-25" r="4" fill="#312e81" opacity="0.65"/><circle cx="-176" cy="12" r="4" fill="#312e81" opacity="0.65"/><circle cx="-147" cy="49" r="4" fill="#312e81" opacity="0.65"/><circle cx="-118" cy="86" r="4" fill="#312e81" opacity="0.65"/><circle cx="-89" cy="123" r="4" fill="#312e81" opacity="0.65"/><circle cx="-60" cy="160" r="4" fill="#312e81" opacity="0.65"/><circle cx="-31" cy="197" r="4" fill="#312e81" opacity="0.65"/><circle cx="-2" cy="-196" r="4" fill="#312e81" opacity="0.65"/><circle cx="27" cy="-159" r="4" fill="#312e81" opacity="0.65"/><circle cx="56" cy="-122" r="4" fill="#312e81" opacity="0.65"/><circle cx="85" cy="-85" r="4" fill="#312e81" opacity="0.65"/><circle cx="114" cy="-48" r="4" fill="#312e81" opacity="0.65"/><circle cx="143" cy="-11" r="4" fill="#312e81" opacity="0.65"/><circle cx="172" cy="26" r="4" fill="#312e81" opacity="0.65"/><circle cx="201" cy="63" r="4" fill="#312e81" opacity="0.65"/><circle cx="230" cy="100" r="4" fill="#312e81" opacity="0.65"/><circle cx="259" cy="137" r="4" fill="#312e81" opacity="0.65"/><circle cx="288" cy="174" r="4" fill="#312e81" opacity="0.65"/><circle cx="317" cy="211" r="4" fill="#312e81" opacity="0.65"/><circle cx="346" cy="-182" r="4" fill="#312e81" opacity="0.65"/><circle cx="-325" cy="-145" r="4" fill="#312e81" opacity="0.65"/><circle cx="-296" cy="-108" r="4" fill="#312e81" opacity="0.65"/><circle cx="-267" cy="-71" r="4" fill="#312e81" opacity="0.65"/><circle cx="-238" cy="-34" r="4" fill="#312e81" opacity="0.65"/><circle cx="-209" cy="3" r="4" fill="#312e81" opacity="0.65"/><circle cx="-180" cy="40" r="4" fill="#312e81" opacity="0.65"/><circle cx="-151" cy="77" r="4" fill="#312e81" opacity="0.65"/><circle cx="-122" cy="114" r="4" fill="#312e81" opacity="0.65"/><circle cx="-93" cy="151" r="4" fill="#312e81" opacity="0.65"/><circle cx="-64" cy="188" r="4" fill="#312e81" opacity="0.65"/><circle cx="-35" cy="-205" r="4" fill="#312e81" opacity="0.65"/><circle cx="-6" cy="-168" r="4" fill="#312e81" opacity="0.65"/><circle cx="23" cy="-131" r="4" fill="#312e81" opacity="0.65"/><circle cx="52" cy="-94" r="4" fill="#312e81" opacity="0.65"/><circle cx="81" cy="-57" r="4" fill="#312e81" opacity="0.65"/><circle cx="110" cy="-20" r="4" fill="#312e81" opacity="0.65"/><circle cx="139" cy="17" r="4" fill="#312e81" opacity="0.65"/><circle cx="168" cy="54" r="4" fill="#312e81" opacity="0.65"/><circle cx="197" cy="91" r="4" fill="#312e81" opacity="0.65"/><circle cx="226" cy="128" r="4" fill="#312e81" opacity="0.65"/><circle cx="255" cy="165" r="4" fill="#312e81" opacity="0.65"/><circle cx="284" cy="202" r="4" fill="#312e81" opacity="0.65"/><circle cx="313" cy="-191" r="4" fill="#312e81" opacity="0.65"/><circle cx="342" cy="-154" r="4" fill="#312e81" opacity="0.65"/><circle cx="-329" cy="-117" r="4" fill="#312e81" opacity="0.65"/><circle cx="-300" cy="-80" r="4" fill="#312e81" opacity="0.65"/><circle cx="-271" cy="-43" r="4" fill="#312e81" opacity="0.65"/><circle cx="-242" cy="-6" r="4" fill="#312e81" opacity="0.65"/><circle cx="-213" cy="31" r="4" fill="#312e81" opacity="0.65"/><circle cx="-184" cy="68" r="4" fill="#312e81" opacity="0.65"/><circle cx="-155" cy="105" r="4" fill="#312e81" opacity="0.65"/><circle cx="-126" cy="142" r="4" fill="#312e81" opacity="0.65"/><circle cx="-97" cy="179" r="4" fill="#312e81" opacity="0.65"/><circle cx="-68" cy="216" r="4" fill="#312e81" opacity="0.65"/><circle cx="-39" cy="-177" r="4" fill="#312e81" opacity="0.65"/><circle cx="-10" cy="-140" r="4" fill="#312e81" opacity="0.65"/><circle cx="19" cy="-103" r="4" fill="#312e81" opacity="0.65"/><circle cx="48" cy="-66" r="4" fill="#312e81" opacity="0.65"/><circle cx="77" cy="-29" r="4" fill="#312e81" opacity="0.65"/><circle cx="106" cy="8" r="4" fill="#312e81" opacity="0.65"/><circle cx="135" cy="45" r="4" fill="#312e81" opacity="0.65"/><circle cx="164" cy="82" r="4" fill="#312e81" opacity="0.65"/><circle cx="193" cy="119" r="4" fill="#312e81" opacity="0.65"/><circle cx="222" cy="156" r="4" fill="#312e81" opacity="0.65"/><circle cx="251" cy="193" r="4" fill="#312e81" opacity="0.65"/><circle cx="280" cy="-200" r="4" fill="#312e81" opacity="0.65"/><circle cx="309" cy="-163" r="4" fill="#312e81" opacity="0.65"/><circle cx="338" cy="-126" r="4" fill="#312e81" opacity="0.65"/><circle cx="-333" cy="-89" r="4" fill="#312e81" opacity="0.65"/><circle cx="-304" cy="-52" r="4" fill="#312e81" opacity="0.65"/><circle cx="-275" cy="-15" r="4" fill="#312e81" opacity="0.65"/><circle cx="-246" cy="22" r="4" fill="#312e81" opacity="0.65"/><circle cx="-217" cy="59" r="4" fill="#312e81" opacity="0.65"/><circle cx="-188" cy="96" r="4" fill="#312e81" opacity="0.65"/><circle cx="-159" cy="133" r="4" fill="#312e81" opacity="0.65"/><circle cx="-130" cy="170" r="4" fill="#312e81" opacity="0.65"/><circle cx="-101" cy="207" r="4" fill="#312e81" opacity="0.65"/><circle cx="-72" cy="-186" r="4" fill="#312e81" opacity="0.65"/><circle cx="-43" cy="-149" r="4" fill="#312e81" opacity="0.65"/><circle cx="-14" cy="-112" r="4" fill="#312e81" opacity="0.65"/><circle cx="15" cy="-75" r="4" fill="#312e81" opacity="0.65"/><circle cx="44" cy="-38" r="4" fill="#312e81" opacity="0.65"/><circle cx="73" cy="-1" r="4" fill="#312e81" opacity="0.65"/><circle cx="102" cy="36" r="4" fill="#312e81" opacity="0.65"/><circle cx="131" cy="73" r="4" fill="#312e81" opacity="0.65"/>

      <!-- Sinusoidal Macrophages heavily laden with dense black Carbon / Anthracotic Pigment -->
      <!-- Large focal cluster 1 (center-left) -->
      <g transform="translate(-80, -20)">
        <ellipse cx="0" cy="0" rx="90" ry="65" fill="#f472b6" opacity="0.4"/>
        <!-- Coarse jet-black carbon clumps -->
        <path d="M -50,-20 Q -20,-45 20,-30 T 60,10 Q 30,45 -20,35 Z" fill="#09090b" stroke="#18181b" stroke-width="3"/>
        <circle cx="-35" cy="15" r="16" fill="#000000"/>
        <circle cx="25" cy="-10" r="18" fill="#000000"/>
        <circle cx="10" cy="25" r="14" fill="#09090b"/>
      </g>

      <!-- Cluster 2 (upper right) -->
      <g transform="translate(150, -100)">
        <ellipse cx="0" cy="0" rx="70" ry="50" fill="#f472b6" opacity="0.35"/>
        <path d="M -40,-10 Q 0,-30 40,-10 T 30,25 Q -10,35 -35,15 Z" fill="#09090b"/>
        <circle cx="-15" cy="5" r="12" fill="#000000"/>
        <circle cx="20" cy="-5" r="11" fill="#000000"/>
      </g>

      <!-- Cluster 3 (lower right) -->
      <g transform="translate(120, 110)">
        <ellipse cx="0" cy="0" rx="65" ry="45" fill="#f472b6" opacity="0.35"/>
        <circle cx="-20" cy="-10" r="14" fill="#09090b"/>
        <circle cx="15" cy="5" r="16" fill="#000000"/>
        <circle cx="-5" cy="15" r="10" fill="#09090b"/>
      </g>
    </g>

    <!-- Marker Arrow targeting dense black pigment in macrophage -->
    <g transform="translate(-230, -110)">
      <circle cx="0" cy="0" r="16" fill="#f59e0b" stroke="#ffffff" stroke-width="2"/>
      <text x="0" y="6" text-anchor="middle" font-family="-apple-system, sans-serif" font-size="16" font-weight="900" fill="#000000">!</text>
      <!-- Slim arrow pointing to black clump -->
      <line x1="16" y1="12" x2="110" y2="75" stroke="#f59e0b" stroke-width="3"/>
      <polygon points="120,82 106,73 112,63" fill="#f59e0b"/>
    </g>
  </g>

  <!-- Watermark -->
  <text x="32" y="678" font-family="-apple-system, sans-serif" font-size="14" font-weight="600" fill="#64748b" letter-spacing="1.5">medicomm</text>
</svg>