<svg xmlns="http://www.w3.org/2000/svg" viewBox="0 0 960 700" width="100%" height="100%">
  <defs>
    <linearGradient id="bgGrad" x1="0" y1="0" x2="0" y2="1">
      <stop offset="0%" stop-color="#090d16"/>
      <stop offset="100%" stop-color="#020617"/>
    </linearGradient>
    <radialGradient id="fieldGrad" cx="50%" cy="50%" r="50%">
      <stop offset="0%" stop-color="#fdf2f8"/>
      <stop offset="100%" stop-color="#fce7f3"/>
    </radialGradient>
    <filter id="shadow" x="-5%" y="-5%" width="110%" height="110%">
      <feDropShadow dx="0" dy="8" stdDeviation="12" flood-color="#000000" flood-opacity="0.8"/>
    </filter>
  </defs>

  <rect width="960" height="700" fill="#000000"/>
  <rect width="960" height="700" fill="url(#bgGrad)"/>

  <!-- Title Badge -->
  <g transform="translate(480, 42)">
    <rect x="-260" y="-18" width="520" height="36" rx="18" fill="#1e293b" stroke="#334155" stroke-width="1.5"/>
    <text x="0" y="6" text-anchor="middle" font-family="-apple-system, sans-serif" font-size="15" font-weight="700" fill="#f8fafc" letter-spacing="1">PERIPHERAL BLOOD SMEAR: HEMOLYTIC ANEMIA</text>
  </g>

  <!-- Microscope Circular Field -->
  <g transform="translate(480, 345)" filter="url(#shadow)">
    <circle cx="0" cy="0" r="236" fill="#0f172a" stroke="#475569" stroke-width="4"/>
    <circle cx="0" cy="0" r="230" fill="url(#fieldGrad)"/>

    <g clip-path="url(#mahaClip)">
      <clipPath id="mahaClip">
        <circle cx="0" cy="0" r="230"/>
      </clipPath>

      <!-- Normal biconcave erythrocytes -->
      <g transform="translate(50, 0)">
          <circle cx="0" cy="0" r="16" fill="#f43f5e" stroke="#e11d48" stroke-width="1.5"/>
          <circle cx="0" cy="0" r="6" fill="#fbcfe8"/>
        </g><g transform="translate(56.70312121335779, 42.72886664379543)">
          <circle cx="0" cy="0" r="16" fill="#f43f5e" stroke="#e11d48" stroke-width="1.5"/>
          <circle cx="0" cy="0" r="6" fill="#fbcfe8"/>
        </g><g transform="translate(25.358636735163923, 88.43607602632534)">
          <circle cx="0" cy="0" r="16" fill="#f43f5e" stroke="#e11d48" stroke-width="1.5"/>
          <circle cx="0" cy="0" r="6" fill="#fbcfe8"/>
        </g><g transform="translate(-40.49557829861893, 105.49458819418379)">
          <circle cx="0" cy="0" r="16" fill="#f43f5e" stroke="#e11d48" stroke-width="1.5"/>
          <circle cx="0" cy="0" r="6" fill="#fbcfe8"/>
        </g><g transform="translate(-113.63844488496107, 71.00918140724946)">
          <circle cx="0" cy="0" r="16" fill="#f43f5e" stroke="#e11d48" stroke-width="1.5"/>
          <circle cx="0" cy="0" r="6" fill="#fbcfe8"/>
        </g><g transform="translate(-154.41017820422056, -13.509140125886981)">
          <circle cx="0" cy="0" r="16" fill="#f43f5e" stroke="#e11d48" stroke-width="1.5"/>
          <circle cx="0" cy="0" r="6" fill="#fbcfe8"/>
        </g><g transform="translate(-130.79348928402138, -117.76698671915905)">
          <circle cx="0" cy="0" r="16" fill="#f43f5e" stroke="#e11d48" stroke-width="1.5"/>
          <circle cx="0" cy="0" r="6" fill="#fbcfe8"/>
        </g><g transform="translate(-37.589372089179285, -193.3805551391898)">
          <circle cx="0" cy="0" r="16" fill="#f43f5e" stroke="#e11d48" stroke-width="1.5"/>
          <circle cx="0" cy="0" r="6" fill="#fbcfe8"/>
        </g><g transform="translate(27.617382247711877, -56.624024916847524)">
          <circle cx="0" cy="0" r="16" fill="#f43f5e" stroke="#e11d48" stroke-width="1.5"/>
          <circle cx="0" cy="0" r="6" fill="#fbcfe8"/>
        </g><g transform="translate(74.8445480318229, -38.13520197812195)">
          <circle cx="0" cy="0" r="16" fill="#f43f5e" stroke="#e11d48" stroke-width="1.5"/>
          <circle cx="0" cy="0" r="6" fill="#fbcfe8"/>
        </g><g transform="translate(103.40481406628186, 18.23305865502764)">
          <circle cx="0" cy="0" r="16" fill="#f43f5e" stroke="#e11d48" stroke-width="1.5"/>
          <circle cx="0" cy="0" r="6" fill="#fbcfe8"/>
        </g><g transform="translate(85.93179336787479, 92.1505664040155)">
          <circle cx="0" cy="0" r="16" fill="#f43f5e" stroke="#e11d48" stroke-width="1.5"/>
          <circle cx="0" cy="0" r="6" fill="#fbcfe8"/>
        </g><g transform="translate(15.36568410034506, 146.19471861913618)">
          <circle cx="0" cy="0" r="16" fill="#f43f5e" stroke="#e11d48" stroke-width="1.5"/>
          <circle cx="0" cy="0" r="6" fill="#fbcfe8"/>
        </g><g transform="translate(-86.52639658488908, 144.00410651795488)">
          <circle cx="0" cy="0" r="16" fill="#f43f5e" stroke="#e11d48" stroke-width="1.5"/>
          <circle cx="0" cy="0" r="6" fill="#fbcfe8"/>
        </g><g transform="translate(-175.23774851312285, 70.8006461556073)">
          <circle cx="0" cy="0" r="16" fill="#f43f5e" stroke="#e11d48" stroke-width="1.5"/>
          <circle cx="0" cy="0" r="6" fill="#fbcfe8"/>
        </g><g transform="translate(-53.125920445898764, -14.235047480638608)">
          <circle cx="0" cy="0" r="16" fill="#f43f5e" stroke="#e11d48" stroke-width="1.5"/>
          <circle cx="0" cy="0" r="6" fill="#fbcfe8"/>
        </g><g transform="translate(-46.79027212475003, -59.88881727411087)">
          <circle cx="0" cy="0" r="16" fill="#f43f5e" stroke="#e11d48" stroke-width="1.5"/>
          <circle cx="0" cy="0" r="6" fill="#fbcfe8"/>
        </g><g transform="translate(-1.692883424416437, -96.98522643016996)">
          <circle cx="0" cy="0" r="16" fill="#f43f5e" stroke="#e11d48" stroke-width="1.5"/>
          <circle cx="0" cy="0" r="6" fill="#fbcfe8"/>
        </g><g transform="translate(69.35865977051179, -95.46400533624383)">
          <circle cx="0" cy="0" r="16" fill="#f43f5e" stroke="#e11d48" stroke-width="1.5"/>
          <circle cx="0" cy="0" r="6" fill="#fbcfe8"/>
        </g><g transform="translate(132.92636107886193, -40.63966695646038)">
          <circle cx="0" cy="0" r="16" fill="#f43f5e" stroke="#e11d48" stroke-width="1.5"/>
          <circle cx="0" cy="0" r="6" fill="#fbcfe8"/>
        </g><g transform="translate(150.3508193257454, 54.723222932106864)">
          <circle cx="0" cy="0" r="16" fill="#f43f5e" stroke="#e11d48" stroke-width="1.5"/>
          <circle cx="0" cy="0" r="6" fill="#fbcfe8"/>
        </g><g transform="translate(98.57966533771994, 151.79937279812174)">
          <circle cx="0" cy="0" r="16" fill="#f43f5e" stroke="#e11d48" stroke-width="1.5"/>
          <circle cx="0" cy="0" r="6" fill="#fbcfe8"/>
        </g><g transform="translate(-14.090807696313398, 201.50793815248448)">
          <circle cx="0" cy="0" r="16" fill="#f43f5e" stroke="#e11d48" stroke-width="1.5"/>
          <circle cx="0" cy="0" r="6" fill="#fbcfe8"/>
        </g><g transform="translate(-44.612013971354465, 51.32025145514853)">
          <circle cx="0" cy="0" r="16" fill="#f43f5e" stroke="#e11d48" stroke-width="1.5"/>
          <circle cx="0" cy="0" r="6" fill="#fbcfe8"/>
        </g><g transform="translate(-87.0551364653087, 18.50414048278058)">
          <circle cx="0" cy="0" r="16" fill="#f43f5e" stroke="#e11d48" stroke-width="1.5"/>
          <circle cx="0" cy="0" r="6" fill="#fbcfe8"/>
        </g><g transform="translate(-99.69385657403147, -46.48800879147701)">
          <circle cx="0" cy="0" r="16" fill="#f43f5e" stroke="#e11d48" stroke-width="1.5"/>
          <circle cx="0" cy="0" r="6" fill="#fbcfe8"/>
        </g><g transform="translate(-61.50077472495175, -115.6661346645194)">
          <circle cx="0" cy="0" r="16" fill="#f43f5e" stroke="#e11d48" stroke-width="1.5"/>
          <circle cx="0" cy="0" r="6" fill="#fbcfe8"/>
        </g><g transform="translate(23.778038686114854, -150.12862777046098)">
          <circle cx="0" cy="0" r="16" fill="#f43f5e" stroke="#e11d48" stroke-width="1.5"/>
          <circle cx="0" cy="0" r="6" fill="#fbcfe8"/>
        </g><g transform="translate(124.44578545858676, -120.17589808940643)">
          <circle cx="0" cy="0" r="16" fill="#f43f5e" stroke="#e11d48" stroke-width="1.5"/>
          <circle cx="0" cy="0" r="6" fill="#fbcfe8"/>
        </g><g transform="translate(192.55395341841646, -23.642652620598657)">
          <circle cx="0" cy="0" r="16" fill="#f43f5e" stroke="#e11d48" stroke-width="1.5"/>
          <circle cx="0" cy="0" r="6" fill="#fbcfe8"/>
        </g>

      <!-- Fragmented Red Blood Cells / Schistocytes (Helmet cells, triangular jagged cells) -->
      <!-- Schistocyte 1: Helmet cell (center-left) -->
      <g transform="translate(-40, -10)">
        <path d="M -24,-15 C 0,-25 24,-15 22,12 C 10,6 -10,6 -22,12 Z"
              fill="#ef4444" stroke="#b91c1c" stroke-width="2"/>
      </g>

      <!-- Schistocyte 2: Triangular fragmented cell (right) -->
      <g transform="translate(70, 30)">
        <polygon points="-16,-18 20,-10 0,18" fill="#ef4444" stroke="#b91c1c" stroke-width="2"/>
      </g>

      <!-- Microspherocyte -->
      <g transform="translate(-60, 90)">
        <circle cx="0" cy="0" r="11" fill="#dc2626" stroke="#991b1b" stroke-width="1.5"/>
      </g>
    </g>

    <!-- Marker Arrow to Helmet Cell -->
    <g transform="translate(-160, -80)">
      <circle cx="0" cy="0" r="16" fill="#f59e0b" stroke="#ffffff" stroke-width="2"/>
      <text x="0" y="6" text-anchor="middle" font-family="-apple-system, sans-serif" font-size="16" font-weight="900" fill="#000000">!</text>
      <!-- Arrow pointing to helmet cell -->
      <line x1="16" y1="12" x2="85" y2="55" stroke="#f59e0b" stroke-width="3"/>
      <polygon points="95,62 82,54 87,44" fill="#f59e0b"/>
    </g>
  </g>

  <!-- Watermark -->
  <text x="32" y="678" font-family="-apple-system, sans-serif" font-size="14" font-weight="600" fill="#64748b" letter-spacing="1.5">medicomm</text>
</svg>