<svg xmlns="http://www.w3.org/2000/svg" viewBox="0 0 960 700" width="100%" height="100%">
  <defs>
    <radialGradient id="fieldGrad" cx="50%" cy="50%" r="50%">
      <stop offset="0%" stop-color="#fff1f2"/><stop offset="85%" stop-color="#ffe4e6"/><stop offset="100%" stop-color="#fecdd3"/>
    </radialGradient>
    <linearGradient id="cellGrad" x1="0" y1="0" x2="0" y2="1">
      <stop offset="0%" stop-color="#f472b6"/><stop offset="70%" stop-color="#db2777"/><stop offset="100%" stop-color="#9d174d"/>
    </linearGradient>
  </defs>
  <rect width="960" height="700" fill="#000000"/>
  
  <g transform="translate(480, 48)">
    <rect x="-340" y="-24" width="680" height="48" rx="24" fill="#030712" stroke="#64748b" stroke-width="2.5"/>
    <text x="0" y="8" text-anchor="middle" font-family='system-ui, -apple-system, BlinkMacSystemFont, "Segoe UI", Roboto, Helvetica, Arial, sans-serif' font-size="22" font-weight="900" fill="#ffffff" text-rendering="geometricPrecision">LUNG TISSUE: HISTOPATHOLOGY (H&amp;E)</text>
  </g>
  <g transform="translate(480, 360)">
    <circle cx="0" cy="0" r="280" fill="url(#fieldGrad)" stroke="#334155" stroke-width="8"/>
    <clipPath id="c1"><circle cx="0" cy="0" r="276"/></clipPath>
    <g clip-path="url(#c1)">
      <!-- Pre-existing delicate Alveolar Septa -->
      <path d="M -280,-120 Q -100,-70 0,-150 T 280,-100" stroke="#fda4af" stroke-width="12" fill="none"/>
      <path d="M -280,100 Q -120,40 20,120 T 280,80" stroke="#fda4af" stroke-width="12" fill="none"/>
      <path d="M -40,-150 Q -10,0 20,120" stroke="#fda4af" stroke-width="10" fill="none"/>

      <!-- Mucinous Atypical Columnar Cells Lining the Septal Framework (Lepidic pattern) -->
      <g fill="url(#cellGrad)" stroke="#831843" stroke-width="1.5">
        <rect x="-240" y="-155" width="22" height="34" rx="4"/><circle cx="-229" cy="-132" r="7" fill="#4c1d95"/>
        <rect x="-215" y="-150" width="22" height="34" rx="4"/><circle cx="-204" cy="-128" r="7" fill="#4c1d95"/>
        <rect x="-190" y="-142" width="22" height="34" rx="4"/><circle cx="-179" cy="-122" r="7" fill="#4c1d95"/>
        <rect x="-165" y="-132" width="22" height="34" rx="4"/><circle cx="-154" cy="-114" r="7" fill="#4c1d95"/>
        <rect x="-140" y="-124" width="22" height="34" rx="4"/><circle cx="-129" cy="-108" r="7" fill="#4c1d95"/>
        <rect x="-115" y="-120" width="22" height="34" rx="4"/><circle cx="-104" cy="-105" r="7" fill="#4c1d95"/>
        
        <rect x="-70" y="-145" width="22" height="34" rx="4"/><circle cx="-59" cy="-125" r="7" fill="#4c1d95"/>
        <rect x="-45" y="-165" width="22" height="34" rx="4"/><circle cx="-34" cy="-145" r="7" fill="#4c1d95"/>
        <rect x="-20" y="-175" width="22" height="34" rx="4"/><circle cx="-9" cy="-155" r="7" fill="#4c1d95"/>
        <rect x="5" y="-172" width="22" height="34" rx="4"/><circle cx="16" cy="-152" r="7" fill="#4c1d95"/>
        <rect x="30" y="-160" width="22" height="34" rx="4"/><circle cx="41" cy="-140" r="7" fill="#4c1d95"/>
        <rect x="55" y="-145" width="22" height="34" rx="4"/><circle cx="66" cy="-125" r="7" fill="#4c1d95"/>
        <rect x="80" y="-135" width="22" height="34" rx="4"/><circle cx="91" cy="-115" r="7" fill="#4c1d95"/>
        <rect x="105" y="-130" width="22" height="34" rx="4"/><circle cx="116" cy="-112" r="7" fill="#4c1d95"/>
        <rect x="130" y="-128" width="22" height="34" rx="4"/><circle cx="141" cy="-110" r="7" fill="#4c1d95"/>
        <rect x="155" y="-125" width="22" height="34" rx="4"/><circle cx="166" cy="-108" r="7" fill="#4c1d95"/>
        <rect x="180" y="-120" width="22" height="34" rx="4"/><circle cx="191" cy="-104" r="7" fill="#4c1d95"/>
        <rect x="205" y="-115" width="22" height="34" rx="4"/><circle cx="216" cy="-100" r="7" fill="#4c1d95"/>
      </g>
      <g fill="url(#cellGrad)" stroke="#831843" stroke-width="1.5">
        <rect x="-180" y="45" width="22" height="34" rx="4"/><circle cx="-169" cy="68" r="7" fill="#4c1d95"/>
        <rect x="-155" y="55" width="22" height="34" rx="4"/><circle cx="-144" cy="78" r="7" fill="#4c1d95"/>
        <rect x="-130" y="65" width="22" height="34" rx="4"/><circle cx="-119" cy="88" r="7" fill="#4c1d95"/>
        <rect x="-105" y="75" width="22" height="34" rx="4"/><circle cx="-94" cy="98" r="7" fill="#4c1d95"/>
        <rect x="-50" y="80" width="22" height="34" rx="4"/><circle cx="-39" cy="102" r="7" fill="#4c1d95"/>
        <rect x="-25" y="85" width="22" height="34" rx="4"/><circle cx="-14" cy="108" r="7" fill="#4c1d95"/>
        <rect x="0" y="90" width="22" height="34" rx="4"/><circle cx="11" cy="112" r="7" fill="#4c1d95"/>
        <rect x="40" y="85" width="22" height="34" rx="4"/><circle cx="51" cy="108" r="7" fill="#4c1d95"/>
        <rect x="65" y="80" width="22" height="34" rx="4"/><circle cx="76" cy="102" r="7" fill="#4c1d95"/>
        <rect x="90" y="70" width="22" height="34" rx="4"/><circle cx="101" cy="92" r="7" fill="#4c1d95"/>
        <rect x="115" y="65" width="22" height="34" rx="4"/><circle cx="126" cy="88" r="7" fill="#4c1d95"/>
      </g>
      <circle cx="-104" cy="-115" r="3.5" fill="#fdf4ff"/><circle cx="-34" cy="-155" r="3.5" fill="#fdf4ff"/>
      <circle cx="41" cy="-150" r="3.5" fill="#fdf4ff"/><circle cx="116" cy="-122" r="3.5" fill="#fdf4ff"/>
    </g>
  </g>
  
  <g transform="translate(740, 260)">
    <rect x="-120" y="-26" width="240" height="52" rx="26" fill="#030712" stroke="#f59e0b" stroke-width="3.5"/>
    <text x="0" y="8" text-anchor="middle" font-family='system-ui, -apple-system, BlinkMacSystemFont, "Segoe UI", Roboto, Helvetica, Arial, sans-serif' font-size="22" font-weight="900" fill="#fef08a" text-rendering="geometricPrecision">Alveolar Septal Growth</text>
    <path d="M -108,0 L -190,-20" stroke="#f59e0b" stroke-width="4" stroke-linecap="round"/>
    <circle cx="-190" cy="-20" r="6" fill="#fde047"/>
  </g>
  
</svg>