<svg xmlns="http://www.w3.org/2000/svg" viewBox="0 0 1000 1000" width="1000" height="1000">
  <rect width="1000" height="1000" fill="#030712"/>

  <!-- Top Title Pill -->
  <rect x="200" y="50" width="600" height="48" rx="24" fill="#0f172a" stroke="#334155" stroke-width="1.5"/>
  <text x="500" y="81" fill="#38bdf8" font-family="sans-serif" font-size="19" font-weight="700" text-anchor="middle" letter-spacing="1">NATURAL HISTORY OF INFECTIOUS DISEASE</text>

  <text x="500" y="135" fill="#94a3b8" font-family="sans-serif" font-size="16" text-anchor="middle">Chronological Disease Progression in an Individual Host</text>

  <!-- Timeline Main Axis Centered -->
  <line x1="120" y1="520" x2="880" y2="520" stroke="#334155" stroke-width="8" stroke-linecap="round"/>

  <!-- Point A: Exposure -->
  <g transform="translate(180, 520)">
    <circle cx="0" cy="0" r="18" fill="#0284c7" stroke="#38bdf8" stroke-width="4"/>
    <text x="0" y="-35" fill="#38bdf8" font-family="sans-serif" font-size="22" font-weight="800" text-anchor="middle">A</text>
    <text x="0" y="50" fill="#f8fafc" font-family="sans-serif" font-size="16" font-weight="700" text-anchor="middle">Point A</text>
    <text x="0" y="78" fill="#94a3b8" font-family="sans-serif" font-size="14" text-anchor="middle">Exposure to Agent</text>
  </g>

  <!-- Point B: Pathological Changes Begin -->
  <g transform="translate(400, 520)">
    <circle cx="0" cy="0" r="18" fill="#059669" stroke="#34d399" stroke-width="4"/>
    <text x="0" y="-35" fill="#34d399" font-family="sans-serif" font-size="22" font-weight="800" text-anchor="middle">B</text>
    <text x="0" y="50" fill="#f8fafc" font-family="sans-serif" font-size="16" font-weight="700" text-anchor="middle">Point B</text>
    <text x="0" y="78" fill="#94a3b8" font-family="sans-serif" font-size="14" text-anchor="middle">Pathological Onset</text>
  </g>

  <!-- Point C: PROMINENT QUESTION MARK [?] -->
  <g transform="translate(620, 520)">
    <circle cx="0" cy="0" r="34" fill="#ef4444" opacity="0.2"/>
    <circle cx="0" cy="0" r="24" fill="#dc2626" stroke="#f87171" stroke-width="5"/>
    
    <rect x="-35" y="-100" width="70" height="48" rx="8" fill="#dc2626" stroke="#fca5a5" stroke-width="2"/>
    <text x="0" y="-68" fill="#fff" font-family="sans-serif" font-size="24" font-weight="900" text-anchor="middle">C</text>
    
    <text x="0" y="50" fill="#f87171" font-family="sans-serif" font-size="18" font-weight="900" text-anchor="middle">POINT C</text>
    <text x="0" y="80" fill="#fca5a5" font-family="sans-serif" font-size="18" font-weight="800" text-anchor="middle">[ ? ]</text>
  </g>

  <!-- Point D: Medical Diagnosis -->
  <g transform="translate(820, 520)">
    <circle cx="0" cy="0" r="18" fill="#7c3aed" stroke="#a78bfa" stroke-width="4"/>
    <text x="0" y="-35" fill="#a78bfa" font-family="sans-serif" font-size="22" font-weight="800" text-anchor="middle">D</text>
    <text x="0" y="50" fill="#f8fafc" font-family="sans-serif" font-size="16" font-weight="700" text-anchor="middle">Point D</text>
    <text x="0" y="78" fill="#94a3b8" font-family="sans-serif" font-size="14" text-anchor="middle">Medical Diagnosis</text>
  </g>

  <!-- Stages of Disease Brackets -->
  <path d="M 180 370 L 180 350 L 400 350 L 400 335 L 400 350 L 620 350 L 620 370" fill="none" stroke="#64748b" stroke-width="2"/>
  <text x="400" y="320" fill="#cbd5e1" font-family="sans-serif" font-size="16" font-weight="700" text-anchor="middle">Stage of Subclinical Disease</text>

  <path d="M 620 370 L 620 350 L 720 350 L 720 335 L 720 350 L 820 350 L 820 370" fill="none" stroke="#64748b" stroke-width="2"/>
  <text x="720" y="320" fill="#cbd5e1" font-family="sans-serif" font-size="16" font-weight="700" text-anchor="middle">Stage of Clinical Disease</text>

  <!-- Single Watermark -->
  <text x="40" y="970" fill="#475569" font-family="-apple-system, BlinkMacSystemFont, 'Segoe UI', Roboto, sans-serif" font-size="18" font-weight="500" letter-spacing="1">medicomm</text>
</svg>