<svg xmlns="http://www.w3.org/2000/svg" viewBox="0 0 960 700" width="100%" height="100%">
  <defs>
    <radialGradient id="fieldGrad" cx="50%" cy="50%" r="50%">
      <stop offset="0%" stop-color="#fff1f2"/><stop offset="85%" stop-color="#ffe4e6"/><stop offset="100%" stop-color="#fecdd3"/>
    </radialGradient>
    <linearGradient id="necroticMyo" x1="0" y1="0" x2="1" y2="0">
      <stop offset="0%" stop-color="#be123c"/><stop offset="50%" stop-color="#e11d48"/><stop offset="100%" stop-color="#9f1239"/>
    </linearGradient>
  </defs>
  <rect width="960" height="700" fill="#000000"/>
  
  <g transform="translate(480, 48)">
    <rect x="-340" y="-24" width="680" height="48" rx="24" fill="#030712" stroke="#64748b" stroke-width="2.5"/>
    <text x="0" y="8" text-anchor="middle" font-family='system-ui, -apple-system, BlinkMacSystemFont, "Segoe UI", Roboto, Helvetica, Arial, sans-serif' font-size="22" font-weight="900" fill="#ffffff" text-rendering="geometricPrecision">CARDIAC TISSUE BIOPSY: POST-INFARCT (H&amp;E)</text>
  </g>
  <g transform="translate(480, 360)">
    <circle cx="0" cy="0" r="280" fill="url(#fieldGrad)" stroke="#334155" stroke-width="8"/>
    <clipPath id="c16"><circle cx="0" cy="0" r="276"/></clipPath>
    <g clip-path="url(#c16)">
      <path d="M -280,-180 Q -100,-150 100,-180 Q 200,-160 280,-190 L 280,-240 L -280,-240 Z" fill="url(#necroticMyo)"/>
      <path d="M -280,-80 Q -180,-120 -60,-80 Q 40,-120 160,-70 L 280,-90 L 280,-150 Q 120,-120 -100,-150 L -280,-140 Z" fill="url(#necroticMyo)"/>
      <path d="M -280,30 Q -160,0 -40,40 Q 80,0 200,50 L 280,30 L 280,-30 Q 140,-10 -60,-30 L -280, -20 Z" fill="url(#necroticMyo)"/>
      <path d="M -280,150 Q -120,110 50,140 Q 180,110 280,160 L 280,90 Q 120,60 -100,90 L -280,80 Z" fill="url(#necroticMyo)"/>

      <line x1="-120" y1="-85" x2="-120" y2="-55" stroke="#881337" stroke-width="4"/>
      <line x1="80" y1="20" x2="80" y2="55" stroke="#881337" stroke-width="4"/>
      
      <g fill="#1e1b4b" stroke="#312e81" stroke-width="1.5">
        <g transform="translate(-10, -10)"><circle cx="-4" cy="-4" r="3.5"/><circle cx="4" cy="-3" r="3.5"/><circle cx="0" cy="4" r="3.5"/></g>
        <g transform="translate(30, -5)"><circle cx="-3" cy="-4" r="3.5"/><circle cx="4" cy="-2" r="3.5"/><circle cx="-1" cy="4" r="3.5"/></g>
        <g transform="translate(-50, 60)"><circle cx="-4" cy="-3" r="3.5"/><circle cx="3" cy="-4" r="3.5"/><circle cx="0" cy="4" r="3.5"/></g>
        <g transform="translate(90, 75)"><circle cx="-4" cy="-4" r="3.5"/><circle cx="4" cy="-3" r="3.5"/><circle cx="1" cy="4" r="3.5"/></g>
        <g transform="translate(-140, -45)"><circle cx="-3" cy="-4" r="3.5"/><circle cx="4" cy="-2" r="3.5"/><circle cx="0" cy="4" r="3.5"/></g>
      </g>
    </g>
  </g>
  
  <g transform="translate(740, 310)">
    <rect x="-120" y="-26" width="240" height="52" rx="26" fill="#030712" stroke="#f59e0b" stroke-width="3.5"/>
    <text x="0" y="8" text-anchor="middle" font-family='system-ui, -apple-system, BlinkMacSystemFont, "Segoe UI", Roboto, Helvetica, Arial, sans-serif' font-size="22" font-weight="900" fill="#fef08a" text-rendering="geometricPrecision">Neutrophilic Infiltrate</text>
    <path d="M -108,0 L -190,30" stroke="#f59e0b" stroke-width="4" stroke-linecap="round"/>
    <circle cx="-190" cy="30" r="6" fill="#fde047"/>
  </g>
  
</svg>